<?xml version="1.0" encoding="utf-8"?>
<svg xmlns="http://www.w3.org/2000/svg" width="140" height="130" viewBox="0 0 140 130" fill="none">
<path d="M37.2062 18.1311C96.2741 -19.2643 177.627 3.15791 211.376 67.257C245.125 131.356 206.881 158.31 147.813 195.705C88.7449 233.101 44.976 179.147 11.2268 115.048C5.72721 104.602 -21.8616 55.5265 37.2062 18.1311Z" fill="#F5F9FF"/>
<path d="M100.98 100.843L26.804 92.017C23.3053 91.6008 20.8078 88.427 21.224 84.9295L22.4078 18.9495C22.824 15.4508 25.9978 12.9533 29.4953 13.3695L103.019 22.1958C106.518 22.612 109.015 25.7858 108.599 29.2833L108.068 95.2633C107.652 98.762 104.478 101.26 100.98 100.843Z" fill="#A9D3EA"/>
<path d="M93.8016 104.107L19.6253 95.2808C16.1266 94.8645 13.6291 91.6908 14.0453 88.1933L22.4078 18.9495C22.8241 15.4508 25.9978 12.9533 29.4953 13.3695L103.672 22.1958C107.17 22.612 109.668 25.7858 109.252 29.2833L100.888 98.527C100.472 102.026 97.2978 104.523 93.8003 104.107H93.8016Z" fill="#D7E6F4"/>
<path d="M30.1025 9.50061L103.984 18.2974C107.562 18.7233 110.119 21.9735 109.693 25.5495L108.505 35.5302L21.6621 25.1902L22.8505 15.2095C23.2764 11.6322 26.5266 9.07483 30.1025 9.50061Z" fill="#D85454"/>
<path d="M36.5874 34.2502L29.9418 33.459C28.8683 33.3312 27.8944 34.0978 27.7666 35.1713L26.9754 41.8169C26.8475 42.8904 27.6142 43.8643 28.6877 43.9921L35.3332 44.7833C36.4068 44.9112 37.3806 44.1445 37.5085 43.071L38.2997 36.4254C38.4275 35.3519 37.6609 34.3781 36.5874 34.2502Z" fill="white"/>
<path d="M52.0122 36.0862L45.3666 35.2949C44.2931 35.1671 43.3192 35.9337 43.1914 37.0072L42.4002 43.6528C42.2723 44.7263 43.039 45.7002 44.1125 45.828L50.758 46.6193C51.8316 46.7471 52.8054 45.9805 52.9333 44.9069L53.7245 38.2614C53.8523 37.1879 53.0857 36.214 52.0122 36.0862Z" fill="white"/>
<path d="M67.435 37.9231L60.7895 37.1318C59.716 37.004 58.7421 37.7706 58.6143 38.8442L57.823 45.4897C57.6952 46.5632 58.4618 47.5371 59.5353 47.6649L66.1809 48.4562C67.2544 48.584 68.2283 47.8174 68.3561 46.7439L69.1474 40.0983C69.2752 39.0248 68.5085 38.0509 67.435 37.9231Z" fill="white"/>
<path d="M82.8598 39.7585L76.2143 38.9673C75.1408 38.8395 74.1669 39.6061 74.0391 40.6796L73.2478 47.3252C73.12 48.3987 73.8866 49.3726 74.9602 49.5004L81.6057 50.2916C82.6792 50.4195 83.6531 49.6528 83.7809 48.5793L84.5722 41.9337C84.7 40.8602 83.9334 39.8864 82.8598 39.7585Z" fill="white"/>
<path d="M98.2856 41.5959L91.6401 40.8047C90.5665 40.6769 89.5927 41.4435 89.4649 42.517L88.6736 49.1626C88.5458 50.2361 89.3124 51.21 90.3859 51.3378L97.0315 52.129C98.105 52.2569 99.0789 51.4902 99.2067 50.4167L99.998 43.7711C100.126 42.6976 99.3591 41.7238 98.2856 41.5959Z" fill="white"/>
<path d="M50.2524 50.863L43.6069 50.0718C42.5333 49.9439 41.5595 50.7106 41.4316 51.7841L40.6404 58.4297C40.5126 59.5032 41.2792 60.4771 42.3527 60.6049L48.9983 61.3961C50.0718 61.5239 51.0457 60.7573 51.1735 59.6838L51.9648 53.0382C52.0926 51.9647 51.3259 50.9908 50.2524 50.863Z" fill="#64B5F6"/>
<path d="M65.6772 52.699L59.0317 51.9077C57.9581 51.7799 56.9843 52.5465 56.8565 53.62L56.0652 60.2656C55.9374 61.3391 56.704 62.313 57.7775 62.4408L64.4231 63.2321C65.4966 63.3599 66.4705 62.5932 66.5983 61.5197L67.3896 54.8742C67.5174 53.8007 66.7507 52.8268 65.6772 52.699Z" fill="white"/>
<path d="M81.102 54.5349L74.4565 53.7436C73.383 53.6158 72.4091 54.3825 72.2813 55.456L71.49 62.1015C71.3622 63.175 72.1288 64.1489 73.2023 64.2767L79.8479 65.068C80.9214 65.1958 81.8953 64.4292 82.0231 63.3557L82.8144 56.7101C82.9422 55.6366 82.1755 54.6627 81.102 54.5349Z" fill="white"/>
<path d="M96.5249 56.3728L89.8793 55.5815C88.8058 55.4537 87.8319 56.2204 87.7041 57.2939L86.9129 63.9394C86.785 65.0129 87.5517 65.9868 88.6252 66.1146L95.2707 66.9059C96.3443 67.0337 97.3181 66.2671 97.446 65.1936L98.2372 58.548C98.365 57.4745 97.5984 56.5006 96.5249 56.3728Z" fill="white"/>
<path d="M48.4927 65.6389L41.8471 64.8476C40.7736 64.7198 39.7997 65.4865 39.6719 66.56L38.8806 73.2055C38.7528 74.2791 39.5194 75.2529 40.593 75.3807L47.2385 76.172C48.312 76.2998 49.2859 75.5332 49.4137 74.4597L50.205 67.8141C50.3328 66.7406 49.5662 65.7667 48.4927 65.6389Z" fill="white"/>
<path d="M63.9175 67.4748L57.2719 66.6836C56.1984 66.5558 55.2245 67.3224 55.0967 68.3959L54.3054 75.0415C54.1776 76.115 54.9442 77.0889 56.0178 77.2167L62.6633 78.0079C63.7368 78.1358 64.7107 77.3691 64.8385 76.2956L65.6298 69.65C65.7576 68.5765 64.991 67.6027 63.9175 67.4748Z" fill="white"/>
<path d="M79.3423 69.3118L72.6967 68.5205C71.6232 68.3927 70.6493 69.1593 70.5215 70.2328L69.7302 76.8784C69.6024 77.9519 70.3691 78.9258 71.4426 79.0536L78.0881 79.8449C79.1616 79.9727 80.1355 79.206 80.2633 78.1325L81.0546 71.487C81.1824 70.4135 80.4158 69.4396 79.3423 69.3118Z" fill="white"/>
<path d="M94.7661 71.1492L88.1205 70.3579C87.047 70.2301 86.0731 70.9967 85.9453 72.0702L85.1541 78.7158C85.0262 79.7893 85.7929 80.7632 86.8664 80.891L93.512 81.6823C94.5855 81.8101 95.5593 81.0434 95.6872 79.9699L96.4784 73.3244C96.6062 72.2509 95.8396 71.277 94.7661 71.1492Z" fill="#64B5F6"/>
<path d="M34.8257 49.0408L28.1801 48.2495C27.1066 48.1217 26.1327 48.8883 26.0049 49.9618L25.2136 56.6074C25.0858 57.6809 25.8525 58.6548 26.926 58.7826L33.5715 59.5739C34.645 59.7017 35.6189 58.935 35.7467 57.8615L36.538 51.216C36.6658 50.1425 35.8992 49.1686 34.8257 49.0408Z" fill="white"/>
<path d="M33.0639 63.8313L26.4184 63.04C25.3449 62.9122 24.371 63.6789 24.2432 64.7524L23.4519 71.3979C23.3241 72.4714 24.0907 73.4453 25.1642 73.5731L31.8098 74.3644C32.8833 74.4922 33.8572 73.7256 33.985 72.6521L34.7763 66.0065C34.9041 64.933 34.1375 63.9591 33.0639 63.8313Z" fill="white"/>
<path d="M31.3042 78.6208L24.6586 77.8296C23.5851 77.7018 22.6112 78.4684 22.4834 79.5419L21.6921 86.1875C21.5643 87.261 22.331 88.2349 23.4045 88.3627L30.05 89.1539C31.1236 89.2818 32.0974 88.5151 32.2252 87.4416L33.0165 80.796C33.1443 79.7225 32.3777 78.7487 31.3042 78.6208Z" fill="#64B5F6"/>
<path d="M46.729 80.4592L40.0834 79.668C39.0099 79.5401 38.036 80.3068 37.9082 81.3803L37.117 88.0259C36.9891 89.0994 37.7558 90.0732 38.8293 90.2011L45.4748 90.9923C46.5484 91.1201 47.5222 90.3535 47.6501 89.28L48.4413 82.6344C48.5691 81.5609 47.8025 80.587 46.729 80.4592Z" fill="white"/>
<path d="M39.2835 19.3947C35.5423 19.3947 32.5098 16.3622 32.5098 12.6209C32.5098 8.87967 35.5423 5.84717 39.2835 5.84717" stroke="#2C343D" stroke-width="3" stroke-miterlimit="10" stroke-linecap="round"/>
<path d="M39.2837 5.84717C43.0812 5.84717 45.6474 8.51592 45.3387 11.3897" stroke="#2C343D" stroke-width="3" stroke-miterlimit="10"/>
<path d="M53.3275 21.0099C49.5862 21.0099 46.5537 17.9774 46.5537 14.2362C46.5537 10.4949 49.5862 7.4624 53.3275 7.4624" stroke="#2C343D" stroke-width="3" stroke-miterlimit="10" stroke-linecap="round"/>
<path d="M53.3271 7.4624C57.1246 7.4624 59.6909 10.1312 59.3822 13.0049" stroke="#2C343D" stroke-width="3" stroke-miterlimit="10"/>
<path d="M67.3724 22.7496C63.6311 22.7496 60.5986 19.7171 60.5986 15.9759C60.5986 12.2346 63.6311 9.20215 67.3724 9.20215" stroke="#2C343D" stroke-width="3" stroke-miterlimit="10" stroke-linecap="round"/>
<path d="M67.3726 9.20215C71.1701 9.20215 73.7363 11.8709 73.4276 14.7446" stroke="#2C343D" stroke-width="3" stroke-miterlimit="10"/>
<path d="M81.4173 24.3659C77.6761 24.3659 74.6436 21.3334 74.6436 17.5921C74.6436 13.8509 77.6761 10.8184 81.4173 10.8184" stroke="#2C343D" stroke-width="3" stroke-miterlimit="10" stroke-linecap="round"/>
<path d="M81.4175 10.8184C85.215 10.8184 87.7812 13.4871 87.4725 16.3609" stroke="#2C343D" stroke-width="3" stroke-miterlimit="10"/>
<path d="M95.0902 25.9821C91.3489 25.9821 88.3164 22.9496 88.3164 19.2083C88.3164 15.4671 91.3489 12.4346 95.0902 12.4346" stroke="#2C343D" stroke-width="3" stroke-miterlimit="10" stroke-linecap="round"/>
<path d="M95.0903 12.4346C98.8878 12.4346 101.454 15.1033 101.145 17.9771" stroke="#2C343D" stroke-width="3" stroke-miterlimit="10"/>
</svg>