<?xml version="1.0" encoding="utf-8"?>
<svg xmlns="http://www.w3.org/2000/svg" width="557" height="240" viewBox="0 0 557 240" fill="none">
<g clip-path="url(#clip0_75_1693)">
<g clip-path="url(#clip1_75_1693)">
<path d="M433.373 234.514C433.488 235.775 433.746 237.018 434.141 238.221C434.585 239.615 435.182 240.956 435.92 242.22L435.989 242.339C436.42 242.091 437.028 241.74 437.817 241.284C439.344 240.402 441.184 239.378 443.252 238.184C444.348 237.551 445.731 236.753 447.397 235.791C448.833 234.962 450.302 234.114 451.811 233.179C451.137 232.007 450.37 230.891 449.52 229.84C448.691 228.85 447.749 227.96 446.713 227.189C445.399 226.159 443.8 225.559 442.134 225.471C440.495 225.412 438.873 225.827 437.464 226.667C436.049 227.424 434.905 228.602 434.19 230.038C433.517 231.428 433.234 232.975 433.373 234.514Z" fill="#64B5F6"/>
<path d="M409.317 179.628C408.365 178.315 407.274 177.108 406.064 176.028C405.394 175.414 404.609 174.941 403.754 174.635C403.416 174.503 403.052 174.451 402.691 174.484C402.33 174.516 401.981 174.632 401.673 174.821C401.334 174.989 401.035 175.227 400.794 175.518C400.554 175.808 400.376 176.146 400.274 176.51C400.08 177.386 400.102 178.296 400.337 179.162C400.547 180.063 400.841 180.943 401.216 181.79C401.653 182.778 402.143 183.742 402.685 184.677C402.848 184.96 403.061 185.328 403.321 185.779C403.448 185.999 403.581 186.229 403.714 186.459C403.919 186.34 404.149 186.207 404.432 186.044C405.221 185.588 406.303 184.964 407.648 184.187L409.39 183.181C409.912 182.88 410.481 182.551 411.123 182.181C410.742 181.532 410.104 180.681 409.317 179.628Z" fill="#64B5F6"/>
<path d="M520.068 228.392L445.088 98.5231L62.3052 319.523L137.285 449.392C139.475 453.159 143.067 455.906 147.275 457.032C151.483 458.158 155.965 457.571 159.739 455.4L514.063 250.831C517.826 248.645 520.57 245.058 521.695 240.854C522.82 236.649 522.235 232.169 520.068 228.392V228.392ZM105.912 353.037L105.481 353.286L85.6221 318.89L86.0529 318.641L90.2004 325.825L103.554 318.115L104.787 320.251L104.243 320.757C104.633 320.906 104.985 321.139 105.275 321.438C105.587 321.763 105.857 322.127 106.078 322.52C106.266 322.813 106.391 323.141 106.446 323.484C106.5 323.828 106.482 324.179 106.394 324.515C106.14 325.242 105.663 325.871 105.031 326.311C104.769 326.52 104.396 326.78 103.917 327.088C103.438 327.397 102.934 327.707 102.407 328.011C101.881 328.315 101.373 328.608 100.926 328.828C100.479 329.048 99.9958 329.295 99.4772 329.524C98.7351 329.896 97.8847 329.99 97.0788 329.791C96.6962 329.688 96.339 329.507 96.03 329.259C95.7209 329.011 95.4666 328.701 95.2832 328.35C95.0952 328.031 94.9327 327.698 94.7972 327.354C94.7047 327.154 94.6633 326.934 94.6769 326.714L91.7094 328.427L97.8589 339.079L99.5963 338.076L107.67 352.06L105.912 353.037ZM93.7637 313.493C95.6016 312.432 97.1142 311.931 98.3016 311.991C98.8909 312.022 99.4614 312.209 99.9542 312.534C100.447 312.859 100.844 313.31 101.105 313.84C101.824 315.085 101.902 316.215 101.331 317.26C100.76 318.304 99.5697 319.349 97.7509 320.399C95.9321 321.449 94.3495 321.98 93.1637 321.905C92.5764 321.863 92.0101 321.668 91.5209 321.34C91.0316 321.012 90.6363 320.563 90.374 320.035C90.0559 319.539 89.8757 318.967 89.852 318.378C89.8283 317.789 89.9618 317.204 90.2389 316.684C90.785 315.596 91.964 314.532 93.7637 313.493ZM110.721 330.484L109.256 331.33L108.333 329.73L101.79 333.508C101.608 333.587 101.445 333.703 101.309 333.847C101.173 333.991 101.067 334.162 100.999 334.348C100.996 334.791 101.134 335.223 101.393 335.583L99.9566 336.412L99.0939 334.917C98.8675 334.589 98.7082 334.219 98.6252 333.828C98.5422 333.438 98.5371 333.035 98.6102 332.642C98.7365 332.262 98.9388 331.912 99.2047 331.612C99.4706 331.313 99.7945 331.071 100.157 330.9L106.791 327.07L106.213 326.069L107.649 325.24L108.227 326.241L111.295 324.47L112.807 327.09L109.739 328.861L110.721 330.484ZM112.634 333.798L101.99 339.944L100.499 337.363L111.13 331.225L112.634 333.798ZM111.8 330.838L114.193 329.457L115.683 332.038L113.29 333.42L111.8 330.838ZM105.964 343.147C105.953 343.472 106.052 343.791 106.244 344.052L104.808 344.881L103.865 343.248C103.697 342.994 103.583 342.707 103.533 342.406C103.482 342.105 103.496 341.797 103.572 341.502C103.812 340.886 104.28 340.386 104.88 340.108L116.477 333.413L117.967 335.994L106.48 342.626C106.361 342.676 106.253 342.75 106.163 342.842C106.073 342.935 106.002 343.045 105.955 343.165L105.964 343.147ZM113.86 348.665L111.692 344.911C110.675 345.442 109.715 346.075 108.827 346.801C108.664 346.926 108.553 347.106 108.514 347.307C108.475 347.509 108.511 347.717 108.615 347.894C108.67 348.004 108.749 348.1 108.848 348.173C108.947 348.246 109.062 348.294 109.183 348.313C109.518 348.306 109.843 348.201 110.118 348.01L111.194 349.873C110.84 350.118 110.439 350.287 110.016 350.367C109.592 350.448 109.157 350.438 108.738 350.339C107.896 350.002 107.212 349.359 106.824 348.539C106.518 348.054 106.35 347.496 106.336 346.924C106.322 346.351 106.465 345.786 106.747 345.288C107.323 344.208 108.505 343.149 110.286 342.121C112.066 341.093 113.561 340.62 114.798 340.685C115.398 340.71 115.98 340.895 116.485 341.222C116.99 341.548 117.398 342.003 117.668 342.539C117.951 342.955 118.12 343.438 118.156 343.94C118.192 344.442 118.095 344.944 117.875 345.396C117.434 346.289 116.487 347.148 115.042 347.983L113.86 348.665ZM406.38 191.599C403.987 192.98 403.455 193.242 403.274 193.347L403.101 193.447L403.006 193.502C402.918 193.558 402.822 193.596 402.72 193.616C402.523 193.664 402.315 193.647 402.128 193.568C401.94 193.488 401.784 193.351 401.681 193.175L395.376 182.256L395.306 182.067L392.292 176.846C391.402 175.368 390.679 173.797 390.135 172.16C389.621 170.739 389.336 169.246 389.291 167.736C389.329 166.416 389.675 165.123 390.302 163.96C390.854 163.01 391.627 162.206 392.555 161.618L392.598 161.593L394.809 160.316C395.604 159.858 396.791 159.172 398.342 158.277C399.892 157.382 401.041 156.718 401.733 156.281C403.396 155.27 404.326 154.273 404.594 153.499C404.862 152.725 404.75 151.735 403.915 150.289C403.219 149.216 402.328 148.284 401.288 147.54C400.025 146.546 398.684 145.654 397.279 144.874C396.839 145.128 396.073 145.57 394.957 146.214C393.297 147.173 391.794 148.041 390.434 148.826C389.075 149.611 379.814 154.958 379.689 155.029L376.739 149.919L401.135 135.835L404.088 140.949L401.896 142.215C403.506 143.168 405.033 144.256 406.46 145.467C407.628 146.429 408.634 147.574 409.438 148.857C410.039 149.809 410.435 150.875 410.601 151.989C410.767 153.103 410.7 154.238 410.402 155.324C409.777 157.479 408.253 159.24 405.977 160.548C404.029 161.673 402.364 162.634 400.925 163.414C399.486 164.194 398.379 164.852 397.498 165.36L395.971 166.242C395.461 166.51 395.057 166.941 394.822 167.467C394.573 168.117 394.498 168.821 394.603 169.509C394.701 170.267 394.912 171.006 395.231 171.701C395.338 171.888 395.427 172.041 395.485 172.231C396.136 171.334 396.97 170.585 397.931 170.034C399.475 169.11 401.302 168.779 403.073 169.102C404.956 169.474 406.72 170.301 408.211 171.513C409.497 172.553 410.681 173.715 411.745 174.982C413.024 176.466 414.221 178.017 415.334 179.628C415.944 179.152 416.446 178.551 416.805 177.866C417.21 177.006 417.336 176.04 417.164 175.104C417.049 174.284 416.83 173.481 416.512 172.716C416.094 171.718 415.608 170.751 415.057 169.82C414.67 169.15 414.338 168.575 414.03 168.14C413.721 167.705 413.289 167.022 412.778 166.226L412.208 165.36L417.063 163.292L417.471 163.886L418.346 165.214C418.795 165.893 419.349 166.819 420.046 168.026C421.048 169.709 421.827 171.515 422.363 173.399C422.828 175.021 422.9 176.73 422.574 178.385C422.247 179.871 421.571 181.258 420.602 182.43C419.562 183.669 417.916 184.919 415.641 186.239C411.86 188.452 408.77 190.244 406.371 191.616L406.38 191.599ZM117.244 375.938C116.836 375.183 116.494 374.393 116.221 373.579C115.461 371.134 115.567 368.502 116.521 366.127C117.474 363.752 119.217 361.778 121.455 360.538C122.555 359.878 123.77 359.432 125.036 359.224C125.484 360.302 125.567 361.497 125.271 362.626C124.53 362.814 123.821 363.109 123.166 363.503C121.262 364.602 119.873 366.413 119.305 368.538C118.736 370.662 119.035 372.926 120.135 374.832C119.143 375.123 118.177 375.493 117.244 375.938ZM115.11 380.619L114.382 379.36C117.804 375.526 125.235 374.945 125.235 374.945C125.235 374.945 126.004 374.961 125.812 374.485C125.754 374.307 125.754 374.307 125.672 374.099C125.672 374.099 125.334 373.369 126.282 373.032C126.935 372.783 126.358 372.446 126.358 372.446C125.763 372.068 126.187 371.785 126.187 371.785C126.392 371.621 126.701 371.36 126.701 371.36C126.938 371.185 126.892 371.039 126.892 371.039L126.676 370.366C126.628 370.221 126.625 370.065 126.669 369.919C126.712 369.773 126.799 369.643 126.919 369.548L127.938 368.838C128.004 368.812 128.062 368.768 128.105 368.712C128.149 368.656 128.178 368.589 128.188 368.519C128.198 368.449 128.19 368.377 128.164 368.31C128.138 368.244 128.095 368.186 128.04 368.141C127.783 367.906 127.145 367.1 127.145 367.1C126.79 366.703 126.541 366.223 126.422 365.704C126.192 364.72 126.193 363.696 126.425 362.713C126.579 361.827 126.595 360.922 126.471 360.03C125.902 357.287 123.524 355.5 123.524 355.5L124.878 354.718C126.406 355.86 127.459 357.526 127.835 359.396C128.141 360.672 128.161 362.001 127.891 363.285C127.802 363.777 127.766 364.278 127.783 364.778C127.799 365.373 128.012 365.946 128.386 366.409C128.837 366.943 129.257 367.501 129.646 368.082C129.714 368.171 129.763 368.272 129.789 368.381C129.816 368.489 129.819 368.602 129.8 368.712C129.78 368.821 129.738 368.926 129.676 369.018C129.614 369.111 129.533 369.19 129.439 369.249C129.439 369.249 128.8 369.746 128.362 370.081C128.362 370.081 128.204 370.173 128.272 370.434L128.357 371.023C128.398 371.15 128.392 371.288 128.34 371.411C128.288 371.534 128.193 371.633 128.073 371.692L127.343 372.03C127.476 372.037 127.606 372.074 127.722 372.138C127.839 372.203 127.939 372.292 128.017 372.401C128.069 372.545 128.066 372.702 128.008 372.844C127.951 372.985 127.843 373.101 127.706 373.168C127.706 373.168 127.242 373.391 127.175 373.64C127.175 373.64 126.996 373.916 127.351 374.675C127.456 374.904 127.5 375.155 127.48 375.406C127.378 376.18 126.465 376.202 126.465 376.202C124.651 376.396 122.858 376.754 121.109 377.27C121.109 377.27 117.128 378.279 115.11 380.619ZM136.155 359.714L135.461 358.512L136.15 356.39L134.568 356.965L134.039 356.05L137.235 354.876L138.513 357.088C138.513 357.088 139.276 358.333 138.486 358.789C138.486 358.789 137.625 359.408 136.679 357.77L136.155 359.714ZM119.431 379.14L119.512 379.093C120.582 378.563 121.717 378.176 122.888 377.942C124.215 378.635 125.695 378.982 127.192 378.949C128.688 378.917 130.152 378.507 131.447 377.757C132.379 377.216 133.195 376.496 133.848 375.639C134.501 374.782 134.978 373.804 135.252 372.762C135.527 371.719 135.593 370.633 135.447 369.565C135.301 368.497 134.946 367.468 134.402 366.537C133.817 365.563 133.044 364.715 132.128 364.044C131.212 363.372 130.171 362.89 129.067 362.625C129.271 361.511 129.24 360.368 128.978 359.266C130.689 359.538 132.317 360.189 133.744 361.172C135.17 362.155 136.359 363.445 137.223 364.947C138.635 367.331 139.138 370.145 138.639 372.87C138.14 375.595 136.673 378.047 134.508 379.775C132.343 381.502 129.627 382.388 126.86 382.269C124.092 382.151 121.461 381.035 119.45 379.128L119.431 379.14ZM136.428 360.188L140.997 361.171L138.925 364.513L138.323 363.469L138.769 362.706L137.73 360.906L136.702 360.662L136.428 360.188ZM141.534 363.051L141.85 362.869L144.256 367.036L143.923 367.189L143.011 365.609L140.145 366.625L139.592 365.667L142.458 364.651L141.534 363.051ZM141.477 368.933L144.676 367.764L145.97 370.005C145.97 370.005 146.733 371.25 145.944 371.706C145.944 371.706 145.018 372.368 144.069 370.725L143.312 369.413L142.017 369.867L141.477 368.933ZM421.219 225.017C421.113 225.082 420.994 225.126 420.87 225.146C420.747 225.166 420.62 225.161 420.498 225.132C420.376 225.102 420.261 225.049 420.16 224.975C420.059 224.901 419.973 224.808 419.908 224.701L417.696 220.87C417.632 220.76 417.592 220.639 417.575 220.513C417.559 220.388 417.568 220.26 417.601 220.138C417.635 220.016 417.692 219.902 417.77 219.803C417.848 219.703 417.945 219.62 418.055 219.558L437.133 208.543L435.234 205.253C430.437 205.787 425.461 206.31 420.226 206.893C414.992 207.476 411.313 207.869 410.2 207.975L407.88 203.957C408.511 203.082 410.618 200.199 413.502 196.241C417.057 191.286 420.676 186.246 424.359 181.123L424.877 180.428L429.762 183.948L415.946 202.231L437.107 199.401C437.308 199.405 437.503 199.462 437.675 199.566C437.847 199.669 437.989 199.816 438.086 199.991L442.013 206.792L444.225 210.623C444.284 210.735 444.321 210.857 444.333 210.983C444.346 211.109 444.333 211.236 444.296 211.357C444.259 211.478 444.199 211.59 444.118 211.688C444.038 211.785 443.939 211.866 443.828 211.925L421.219 225.017ZM448.736 209.13C448.629 209.196 448.51 209.24 448.386 209.26C448.262 209.28 448.135 209.276 448.013 209.246C447.891 209.217 447.775 209.165 447.673 209.091C447.572 209.017 447.485 208.924 447.419 208.817L445.207 204.986C445.144 204.876 445.104 204.754 445.089 204.628C445.073 204.501 445.083 204.374 445.118 204.251C445.152 204.129 445.211 204.015 445.29 203.916C445.369 203.816 445.467 203.734 445.579 203.673L449.183 201.592C449.399 201.462 449.657 201.422 449.902 201.479C450.148 201.537 450.361 201.688 450.497 201.9L452.709 205.732C452.769 205.843 452.806 205.964 452.819 206.09C452.832 206.215 452.819 206.342 452.783 206.463C452.746 206.584 452.687 206.696 452.606 206.793C452.526 206.891 452.428 206.972 452.317 207.031L448.736 209.13ZM441.861 219.76C444.389 220.044 446.808 220.951 448.899 222.401C450.521 223.502 451.969 224.84 453.195 226.37C454.675 228.24 456.006 230.224 457.175 232.303L458.71 234.961C458.803 235.179 458.813 235.423 458.738 235.648C458.663 235.872 458.508 236.061 458.303 236.179L456.776 237.061C456.039 237.487 455.072 238.045 453.857 238.747C451.131 240.282 448.549 241.753 446.111 243.161C444.452 244.119 442.763 245.094 441.043 246.087C439.331 247.114 437.762 248.02 436.321 248.852C433.626 250.407 431.153 251.197 428.939 251.198C426.722 251.139 424.563 250.479 422.692 249.287C421.416 248.441 420.233 247.46 419.165 246.362C419.082 243.9 419.309 241.437 419.84 239.031C420.15 239.491 420.458 239.913 420.762 240.319C421.624 241.512 422.625 242.597 423.746 243.551C425.384 244.885 426.84 245.507 428.102 245.57C429.301 245.61 430.493 245.361 431.575 244.842L431.389 244.521C430.266 242.561 429.365 240.481 428.703 238.32C428.013 236.236 427.735 234.037 427.882 231.847C428.003 229.667 428.691 227.557 429.877 225.725C431.064 223.894 432.708 222.403 434.647 221.402C436.815 220.1 439.342 219.524 441.861 219.76ZM160.477 425.728C160.276 425.767 149.194 428.181 149.194 428.181C148.773 428.258 148.627 428.062 148.472 427.793L131.431 398.277C131.391 398.206 131.365 398.128 131.356 398.046C131.347 397.965 131.354 397.883 131.377 397.804C131.4 397.726 131.439 397.653 131.491 397.59C131.543 397.527 131.607 397.475 131.68 397.438L148.207 387.896C148.576 387.683 148.891 387.82 149.124 388.19C149.456 388.765 149.942 389.519 150.481 390.453C154.253 396.985 161.655 411.874 161.053 425.045C161.062 425.128 161.055 425.212 161.031 425.292C161.007 425.372 160.966 425.447 160.912 425.511C160.859 425.575 160.792 425.627 160.717 425.665C160.642 425.702 160.561 425.724 160.477 425.728ZM456.159 270.821C454.353 271.067 452.515 270.945 450.758 270.46C449 269.975 447.359 269.139 445.934 268.001C444.571 266.865 443.426 265.489 442.557 263.942C441.683 262.44 441.078 260.797 440.769 259.087C440.475 257.43 440.502 255.732 440.849 254.086C441.295 252.154 442.162 250.346 443.387 248.789C444.647 247.161 446.214 245.797 447.999 244.772C449.651 243.801 451.469 243.146 453.36 242.839C455.236 242.56 457.15 242.692 458.97 243.227C460.685 243.7 462.288 244.511 463.686 245.613C465.119 246.749 466.323 248.147 467.233 249.734C468.164 251.302 468.794 253.03 469.09 254.83C469.363 256.541 469.27 258.29 468.817 259.962C468.356 261.835 467.502 263.588 466.312 265.106C465.073 266.629 463.559 267.906 461.848 268.87C460.105 269.886 458.178 270.546 456.178 270.81L456.159 270.821Z" fill="#64B5F6"/>
<path d="M128.535 208.565C130.615 212.166 134.492 214.583 138.575 212.225C142.806 209.783 142.344 205.203 140.262 201.596C138.067 197.794 134.343 195.301 130.007 197.805C125.67 200.308 126.365 204.805 128.535 208.565Z" fill="#323E48"/>
<path d="M396.998 15.2288C394.81 11.4651 391.223 8.71967 387.019 7.59196C382.816 6.46425 378.338 7.04592 374.563 9.20995L20.2392 213.779C16.4779 215.966 13.7352 219.553 12.61 223.757C11.4849 227.961 12.0688 232.441 14.2341 236.218L62.324 319.512L445.088 98.5229L396.998 15.2288ZM327.017 142.554C326.281 142.982 325.499 143.326 324.686 143.58C323.943 143.812 323.164 143.905 322.387 143.854C321.637 143.797 320.912 143.558 320.275 143.158C319.545 142.677 318.931 142.038 318.481 141.288L320.754 139.975C321.014 140.42 321.386 140.789 321.832 141.046C322.238 141.264 322.691 141.381 323.152 141.388C323.64 141.388 324.124 141.307 324.584 141.149C325.081 140.983 325.559 140.767 326.011 140.503C326.385 140.285 326.743 140.042 327.084 139.775C327.43 139.514 327.737 139.205 327.997 138.859C328.239 138.538 328.394 138.16 328.449 137.762C328.496 137.326 328.394 136.887 328.158 136.518C328.022 136.248 327.818 136.019 327.566 135.852C327.314 135.685 327.023 135.586 326.722 135.566C326.016 135.531 325.309 135.609 324.628 135.798C323.85 135.998 323.028 136.242 322.157 136.547C321.33 136.835 320.477 137.041 319.609 137.163C318.823 137.274 318.023 137.205 317.267 136.963C316.452 136.649 315.785 136.041 315.396 135.259C315.018 134.637 314.826 133.92 314.84 133.192C314.862 132.526 315.035 131.873 315.347 131.284C315.671 130.667 316.094 130.108 316.599 129.629C317.112 129.135 317.683 128.706 318.298 128.348C319.021 127.923 319.784 127.572 320.577 127.3C321.268 127.059 321.999 126.951 322.73 126.983C323.435 127.024 324.118 127.242 324.717 127.617C325.42 128.082 326.014 128.693 326.46 129.408L324.191 130.718C323.944 130.337 323.604 130.026 323.203 129.813C322.844 129.633 322.448 129.538 322.047 129.536C321.631 129.532 321.218 129.596 320.822 129.725C320.411 129.856 320.016 130.03 319.643 130.247C319.298 130.445 318.969 130.669 318.658 130.917C318.354 131.155 318.086 131.437 317.864 131.753C317.663 132.03 317.532 132.351 317.48 132.69C317.437 133.047 317.519 133.408 317.712 133.711C317.814 133.892 317.953 134.05 318.12 134.174C318.287 134.297 318.479 134.384 318.682 134.429C319.15 134.528 319.633 134.54 320.105 134.463C320.676 134.374 321.238 134.239 321.787 134.06C322.389 133.865 322.995 133.676 323.598 133.493C324.233 133.291 324.878 133.121 325.531 132.984C326.137 132.854 326.758 132.813 327.376 132.864C327.959 132.917 328.524 133.097 329.032 133.389C329.6 133.739 330.064 134.234 330.377 134.822C330.825 135.537 331.061 136.364 331.058 137.207C331.031 137.952 330.827 138.679 330.465 139.33C330.077 140.022 329.567 140.636 328.96 141.145C328.357 141.674 327.707 142.146 327.017 142.554ZM354.111 45.9539C357.755 43.8618 362.079 43.2981 366.139 44.3857C370.199 45.4734 373.664 48.124 375.778 51.7585L394.774 84.6605C396.866 88.3077 397.43 92.6346 396.342 96.6948C395.254 100.755 392.602 104.218 388.967 106.327L356.086 125.311C352.442 127.401 348.119 127.963 344.061 126.875C340.003 125.786 336.54 123.135 334.428 119.501L315.432 86.599C313.341 82.9534 312.777 78.6287 313.863 74.57C314.949 70.5112 317.598 67.0484 321.229 64.9382L354.111 45.9539ZM240.307 138.817L248.016 152.169L239.999 156.797L225.87 132.325L233.648 127.834L235.583 131.187L235.688 131.126C235.678 127.792 238.096 124.32 241.002 122.643C249.138 117.945 253.25 123.496 255.29 127.031L264.357 142.735L256.345 147.361L249.512 135.526C247.577 132.174 245.997 128.565 241.608 131.099C238.612 132.829 238.765 136.144 240.307 138.817ZM167.942 172.059L181.822 164.046L185.74 170.832L171.86 178.846L179.348 191.815L170.589 196.872L151.15 163.204L175.938 148.892L179.995 155.918L163.966 165.172L167.942 172.059ZM198.001 164.921L204.994 177.033L196.977 181.662L182.836 157.17L190.624 152.674L193.112 156.984L193.203 156.932C192.591 153.141 194.365 149.914 197.816 147.921C198.447 147.553 199.115 147.255 199.81 147.032L204.005 154.297C202.835 154.568 201.709 155.003 200.66 155.589C196.707 157.872 196.215 161.828 197.99 164.902L198.001 164.921ZM130.355 184.686L133.514 182.862L148.841 209.409L145.682 211.232L144.181 208.632L144.104 208.676C144.29 211.385 142.371 213.732 139.733 215.254C133.818 218.67 128.181 215.672 125.051 210.251C121.921 204.83 122.171 198.574 128.048 195.181C130.011 194.048 133.266 193.165 136.007 194.596L136.084 194.552L130.355 184.686ZM145.219 198.614C141.901 192.867 143.243 186.415 148.484 183.389C155.276 179.468 161.034 184.623 163.535 189.386L149.177 197.676C151.002 201.092 154.606 202.958 158.799 200.537C161.398 199.036 162.484 196.717 161.612 193.913L164.723 192.117C166.318 196.847 164.604 200.908 160.296 203.395C154.146 206.959 148.83 204.383 145.227 198.628L145.219 198.614ZM81.4003 248.352L67.2764 223.889L75.2646 219.277L89.3969 243.754L81.4003 248.352ZM93.3133 241.474L77.6631 214.367L72.5849 217.299L67.5692 215.188L66.9179 220.571L60.8872 224.053L62.1013 213.997L69.2807 209.852L76.9064 213.112L73.8649 207.843L81.8819 203.215L101.323 236.888L93.3133 241.474ZM96.3213 223.339C91.994 215.844 94.8765 207.009 102.085 202.847C110.853 197.784 119.046 201.86 123.469 210.373L105.506 220.744C107.585 224.013 110.789 225.108 114.187 223.146C116.101 222.04 117.499 220.039 117.201 217.81L124.696 213.483C126.508 219.991 122.696 225.493 117.235 228.646C109.252 233.223 101.055 231.538 96.3213 223.339ZM209.22 165.628C204.624 157.669 213.651 153.274 218.557 148.928C219.763 147.855 220.243 146.952 219.373 145.444C218.311 143.605 215.693 144.177 214.042 145.131C211.821 146.413 210.986 148.217 211.802 150.504L204.312 154.828C202.608 151.546 202.922 148.607 204.353 146.057C205.784 143.506 208.35 141.495 211.145 139.881C216.941 136.535 223.289 134.575 227.29 141.505L233.467 152.204C234.664 154.277 235.972 156.543 238.047 157.925L229.977 162.584C229.293 161.983 228.684 161.3 228.166 160.552C227.346 163.918 224.769 166.529 221.84 168.221C217.173 170.915 212.134 170.676 209.22 165.628ZM259.324 129.862C254.834 122.084 256.572 113.654 264.445 109.108C270.524 105.599 277.782 105.68 282.094 111.811L274.321 116.299C273.071 114.256 270.366 113.87 268.365 115.025C263.89 117.609 265.394 121.849 267.346 125.23C269.171 128.391 272.414 130.848 275.803 128.891C278.574 127.291 279.084 124.858 277.954 122.062L285.703 117.588C288.782 124.546 285.871 131.252 279.366 135.008C272.038 139.238 263.651 137.357 259.324 129.862ZM284.645 114.604C280.317 107.109 283.204 98.271 290.408 94.1121C299.181 89.0469 307.374 93.1227 311.787 101.641L293.829 112.009C295.908 115.278 299.117 116.37 302.515 114.408C304.429 113.303 305.827 111.302 305.519 109.078L313.024 104.745C314.821 111.262 311.024 116.756 305.553 119.914C297.583 124.49 289.365 122.824 284.628 114.62L284.645 114.604ZM305.235 127.288L303.957 133.773L302.248 134.76L302.325 128.968L305.235 127.288ZM300.934 152.9C301.052 153.12 301.199 153.323 301.372 153.503C301.495 153.633 301.662 153.714 301.841 153.73C302.055 153.742 302.267 153.7 302.461 153.609C302.766 153.469 303.064 153.314 303.354 153.144L304.397 152.542L305.556 154.548L303.799 155.563C303.296 155.861 302.765 156.112 302.215 156.311C301.811 156.468 301.374 156.518 300.946 156.457C300.532 156.376 300.151 156.177 299.849 155.883C299.418 155.458 299.053 154.971 298.766 154.439L293.692 145.651L291.342 147.008L290.184 145.001L292.534 143.644L290.142 139.501L292.415 138.189L294.807 142.331L297.559 140.743L298.718 142.749L295.966 144.338L300.934 152.9ZM277.426 145.342L279.699 144.03L290.718 163.115L288.445 164.427L277.426 145.342ZM285.056 166.384L282.783 167.697L274.805 153.88L277.079 152.567L285.056 166.384ZM275.641 150.077L273.368 151.389L271.764 148.611L274.037 147.299L275.641 150.077ZM283.093 142.071L285.362 140.761L286.965 143.538L284.697 144.848L283.093 142.071ZM286.135 147.339L288.403 146.029L296.383 159.851L294.114 161.16L286.135 147.339ZM246.591 188.598L241.357 179.532C241.125 179.129 240.858 178.747 240.558 178.391C240.296 178.083 239.97 177.835 239.603 177.665C239.229 177.497 238.817 177.433 238.41 177.478C237.881 177.549 237.374 177.733 236.922 178.018C236.423 178.269 235.98 178.619 235.62 179.046C235.261 179.474 234.991 179.97 234.829 180.504C234.699 181.032 234.678 181.58 234.768 182.115C234.858 182.651 235.056 183.163 235.351 183.619L240.328 192.24L238.059 193.55L232.814 184.464C232.58 184.05 232.303 183.662 231.986 183.307C231.714 183.006 231.384 182.762 231.017 182.59C230.655 182.427 230.256 182.362 229.861 182.402C229.363 182.472 228.885 182.645 228.458 182.911C227.858 183.234 227.353 183.709 226.993 184.287C226.69 184.783 226.488 185.334 226.398 185.908C226.32 186.418 226.33 186.936 226.428 187.442C226.495 187.832 226.622 188.209 226.805 188.559L231.782 197.18L229.513 198.49L221.52 184.644L223.654 183.412L224.827 185.442L224.884 185.409C224.994 183.925 225.634 182.529 226.686 181.477C227.739 180.425 229.134 179.787 230.618 179.678C231.081 179.662 231.543 179.739 231.975 179.905C232.408 180.071 232.803 180.323 233.136 180.645C233.16 179.657 233.444 178.693 233.96 177.851C234.492 176.997 235.23 176.291 236.105 175.796C236.737 175.422 237.414 175.132 238.121 174.932C238.721 174.766 239.349 174.725 239.966 174.812C240.566 174.907 241.134 175.149 241.618 175.518C242.191 175.96 242.665 176.518 243.009 177.154L248.86 187.288L246.591 188.598ZM254.941 183.439C253.932 183.559 252.91 183.453 251.948 183.13C250.983 182.801 250.097 182.275 249.346 181.586C248.525 180.839 247.828 179.965 247.283 178.997C246.717 178.037 246.307 176.994 246.067 175.906C245.843 174.907 245.827 173.872 246.022 172.867C246.223 171.869 246.641 170.929 247.245 170.111C248.669 168.293 250.741 167.097 253.027 166.773C254.034 166.664 255.052 166.776 256.011 167.099C256.979 167.433 257.868 167.964 258.621 168.658C259.443 169.41 260.141 170.287 260.69 171.257C261.255 172.212 261.664 173.253 261.901 174.338C262.122 175.333 262.134 176.363 261.937 177.363C261.738 178.354 261.323 179.288 260.722 180.101C259.284 181.902 257.219 183.094 254.941 183.439ZM272.904 173.655C272.436 173.828 271.952 173.952 271.458 174.024C270.947 174.1 270.428 174.105 269.916 174.039C269.384 173.972 268.87 173.803 268.403 173.54L268.35 173.571L269.417 175.419L267.144 176.732L256.125 157.647L258.398 156.334L262.518 163.47L262.571 163.44C262.496 162.476 262.78 161.519 263.367 160.751C263.999 159.913 264.797 159.215 265.713 158.701C266.663 158.123 267.735 157.773 268.843 157.679C269.83 157.608 270.819 157.761 271.738 158.128C272.675 158.505 273.531 159.058 274.261 159.756C275.053 160.499 275.729 161.357 276.266 162.302C276.815 163.24 277.226 164.252 277.485 165.308C277.727 166.276 277.776 167.282 277.631 168.269C277.477 169.234 277.104 170.15 276.542 170.948C275.898 171.84 275.064 172.576 274.099 173.106C273.723 173.314 273.332 173.493 272.928 173.641L272.904 173.655ZM310.639 151.294C309.659 151.41 308.666 151.302 307.733 150.98C306.777 150.636 305.902 150.097 305.166 149.397C304.329 148.619 303.602 147.73 303.003 146.756C302.427 145.784 302.028 144.718 301.823 143.607C301.64 142.595 301.652 141.559 301.859 140.552C302.066 139.584 302.473 138.67 303.055 137.87C303.664 137.033 304.446 136.337 305.349 135.83C306.396 135.171 307.609 134.823 308.847 134.826C309.92 134.857 310.971 135.135 311.92 135.638C312.865 136.142 313.711 136.813 314.416 137.619C315.101 138.382 315.689 139.227 316.168 140.133L305.829 146.102C306.148 146.695 306.556 147.234 307.04 147.702C307.5 148.141 308.046 148.478 308.645 148.691C309.267 148.906 309.928 148.98 310.582 148.907C311.35 148.812 312.089 148.555 312.751 148.153C313.61 147.704 314.303 146.99 314.728 146.118C315.088 145.245 315.104 144.269 314.771 143.385L317.064 142.061C317.656 143.557 317.662 145.221 317.08 146.72C316.419 148.191 315.285 149.398 313.859 150.15C312.885 150.747 311.796 151.132 310.663 151.28L310.639 151.294Z" fill="#25303B"/>
<path d="M105.218 208.273C102.394 209.903 101.675 213.013 102.924 216.271L112.869 210.528C111.139 207.862 107.903 206.723 105.218 208.273Z" fill="#323E48"/>
<path d="M309.851 137.407C309.294 137.261 308.715 137.221 308.143 137.289C307.527 137.365 306.934 137.568 306.401 137.886C305.851 138.192 305.37 138.609 304.989 139.11C304.644 139.57 304.396 140.096 304.26 140.654C304.129 141.212 304.101 141.789 304.177 142.356C304.257 142.953 304.435 143.532 304.701 144.071L312.637 139.49C312.297 138.985 311.878 138.539 311.396 138.169C310.934 137.819 310.41 137.56 309.851 137.407Z" fill="#323E48"/>
<path d="M222.737 151.483C222.011 152.834 220.027 154.184 218.544 155.66C217.06 157.136 215.929 158.747 217.043 160.677C218.158 162.607 220.196 162.567 222 161.525C225.81 159.325 225.838 156.423 222.737 151.483Z" fill="#323E48"/>
<path d="M293.545 99.5425C290.711 101.178 290.007 104.28 291.251 107.54L301.197 101.798C299.471 99.1288 296.235 97.9895 293.545 99.5425Z" fill="#323E48"/>
<path d="M259.274 177.227C259.415 176.514 259.408 175.779 259.253 175.068C258.86 173.356 257.962 171.801 256.676 170.605C256.133 170.112 255.497 169.732 254.806 169.488C254.174 169.273 253.504 169.198 252.841 169.268C252.18 169.344 251.541 169.555 250.965 169.887C250.388 170.22 249.887 170.668 249.491 171.203C249.098 171.742 248.827 172.36 248.698 173.014C248.565 173.735 248.576 174.475 248.731 175.192C249.123 176.904 250.021 178.459 251.308 179.655C251.846 180.145 252.478 180.519 253.167 180.753C253.796 180.962 254.464 181.032 255.123 180.958C255.785 180.886 256.425 180.677 257.002 180.344C257.579 180.011 258.08 179.562 258.473 179.024C258.867 178.49 259.14 177.877 259.274 177.227Z" fill="#323E48"/>
<path d="M149.891 186.324C146.584 188.234 146.059 191.845 147.527 194.918L158.535 188.562C156.691 185.61 153.041 184.506 149.891 186.324Z" fill="#323E48"/>
<path d="M275.017 167.729C275.045 167.014 274.946 166.299 274.724 165.619C274.493 164.886 274.183 164.181 273.797 163.516C273.429 162.879 272.977 162.294 272.454 161.776C271.956 161.278 271.372 160.873 270.73 160.581C270.103 160.3 269.418 160.17 268.731 160.203C267.966 160.247 267.224 160.481 266.571 160.882C265.88 161.252 265.296 161.796 264.878 162.459C264.529 163.054 264.318 163.719 264.26 164.406C264.204 165.113 264.283 165.823 264.492 166.5C264.7 167.216 264.994 167.904 265.369 168.549C265.75 169.211 266.211 169.824 266.742 170.374C267.235 170.889 267.821 171.307 268.468 171.606C269.103 171.888 269.795 172.019 270.489 171.991C271.29 171.94 272.066 171.694 272.749 171.273C273.445 170.903 274.032 170.355 274.449 169.686C274.796 169.09 274.991 168.418 275.017 167.729Z" fill="#323E48"/>
<path d="M241.629 175.512C241.145 175.143 240.577 174.9 239.976 174.806C239.36 174.719 238.732 174.76 238.131 174.926C237.425 175.126 236.747 175.416 236.116 175.789C235.24 176.285 234.503 176.991 233.971 177.845C233.455 178.687 233.171 179.651 233.146 180.639C232.813 180.317 232.419 180.065 231.986 179.899C231.554 179.733 231.092 179.656 230.629 179.672C229.145 179.781 227.749 180.419 226.697 181.471C225.644 182.523 225.005 183.919 224.895 185.403L224.837 185.436L223.665 183.406L221.53 184.638L229.51 198.46L231.779 197.15L226.802 188.529C226.619 188.179 226.492 187.802 226.425 187.412C226.327 186.906 226.317 186.388 226.394 185.878C226.485 185.304 226.687 184.753 226.99 184.257C227.35 183.679 227.855 183.204 228.455 182.881C228.882 182.615 229.36 182.442 229.858 182.371C230.253 182.332 230.652 182.397 231.014 182.56C231.381 182.732 231.711 182.976 231.983 183.277C232.299 183.632 232.577 184.02 232.81 184.434L238.045 193.5L240.313 192.191L235.336 183.57C235.042 183.114 234.844 182.602 234.754 182.066C234.664 181.531 234.685 180.982 234.814 180.455C234.977 179.92 235.246 179.425 235.606 178.997C235.966 178.57 236.409 178.22 236.908 177.969C237.36 177.684 237.867 177.5 238.396 177.429C238.803 177.384 239.215 177.448 239.589 177.616C239.955 177.786 240.281 178.033 240.544 178.341C240.843 178.697 241.111 179.079 241.343 179.483L246.577 188.549L248.846 187.239L243.02 177.148C242.675 176.512 242.201 175.954 241.629 175.512Z" fill="white"/>
<path d="M261.949 177.355C262.147 176.355 262.135 175.325 261.913 174.33C261.677 173.245 261.268 172.205 260.702 171.249C260.154 170.279 259.456 169.402 258.634 168.65C257.88 167.956 256.992 167.426 256.024 167.092C255.064 166.768 254.046 166.656 253.04 166.765C250.754 167.089 248.682 168.285 247.258 170.103C246.653 170.921 246.236 171.862 246.035 172.859C245.84 173.864 245.855 174.899 246.079 175.898C246.319 176.986 246.73 178.029 247.296 178.989C247.841 179.957 248.537 180.831 249.359 181.578C250.11 182.268 250.996 182.793 251.96 183.122C252.923 183.446 253.945 183.551 254.953 183.431C257.232 183.086 259.297 181.894 260.735 180.093C261.336 179.281 261.75 178.346 261.949 177.355ZM255.148 180.962C254.489 181.036 253.822 180.966 253.192 180.757C252.504 180.523 251.871 180.149 251.333 179.659C250.047 178.463 249.149 176.908 248.756 175.196C248.601 174.479 248.59 173.739 248.724 173.018C248.853 172.363 249.123 171.745 249.516 171.207C249.912 170.672 250.414 170.224 250.99 169.891C251.567 169.558 252.205 169.348 252.866 169.272C253.529 169.201 254.2 169.276 254.831 169.492C255.522 169.736 256.158 170.116 256.701 170.609C257.988 171.805 258.885 173.36 259.278 175.072C259.433 175.783 259.44 176.518 259.299 177.231C259.165 177.881 258.892 178.494 258.499 179.028C258.105 179.565 257.604 180.015 257.027 180.348C256.451 180.681 255.811 180.89 255.148 180.962Z" fill="white"/>
<path d="M277.655 168.256C277.799 167.269 277.75 166.263 277.508 165.294C277.249 164.239 276.838 163.226 276.289 162.288C275.752 161.344 275.076 160.486 274.284 159.742C273.554 159.044 272.698 158.492 271.761 158.115C270.843 157.748 269.853 157.594 268.866 157.666C267.758 157.759 266.686 158.109 265.736 158.688C264.821 159.201 264.022 159.899 263.391 160.738C262.803 161.505 262.519 162.462 262.594 163.426L262.542 163.457L258.422 156.321L256.148 157.633L267.167 176.718L269.44 175.406L268.373 173.557L268.426 173.527C268.893 173.789 269.407 173.959 269.939 174.026C270.451 174.092 270.97 174.087 271.481 174.01C271.975 173.938 272.459 173.815 272.927 173.642C273.34 173.49 273.739 173.306 274.122 173.092C275.087 172.563 275.921 171.826 276.565 170.934C277.128 170.136 277.5 169.22 277.655 168.256ZM270.481 171.969C269.787 171.998 269.095 171.866 268.46 171.585C267.813 171.286 267.227 170.868 266.734 170.353C266.203 169.803 265.742 169.19 265.361 168.528C264.986 167.883 264.692 167.195 264.484 166.479C264.275 165.802 264.196 165.091 264.252 164.385C264.31 163.698 264.521 163.033 264.87 162.438C265.288 161.775 265.872 161.231 266.563 160.86C267.216 160.459 267.958 160.226 268.723 160.181C269.41 160.149 270.095 160.278 270.722 160.56C271.364 160.852 271.948 161.256 272.446 161.755C272.969 162.273 273.421 162.858 273.789 163.495C274.175 164.16 274.485 164.865 274.716 165.598C274.938 166.278 275.037 166.993 275.009 167.708C274.977 168.39 274.78 169.054 274.435 169.642C274.017 170.312 273.431 170.86 272.735 171.23C272.056 171.657 271.282 171.911 270.481 171.969Z" fill="white"/>
<path d="M285.067 166.383L277.087 152.561L274.818 153.871L282.798 167.693L285.067 166.383Z" fill="white"/>
<path d="M275.652 150.076L274.048 147.299L271.78 148.608L273.383 151.386L275.652 150.076Z" fill="white"/>
<path d="M290.729 163.115L279.71 144.03L277.442 145.339L288.46 164.424L290.729 163.115Z" fill="white"/>
<path d="M286.976 143.538L285.373 140.761L283.104 142.07L284.708 144.848L286.976 143.538Z" fill="white"/>
<path d="M296.391 159.845L288.411 146.023L286.142 147.333L294.122 161.155L296.391 159.845Z" fill="white"/>
<path d="M297.577 140.732L294.825 142.321L292.433 138.179L290.159 139.491L292.551 143.634L290.201 144.991L291.36 146.997L293.71 145.641L298.786 154.434C299.074 154.966 299.438 155.453 299.869 155.878C300.171 156.172 300.552 156.371 300.966 156.451C301.394 156.513 301.832 156.463 302.235 156.306C302.786 156.107 303.316 155.856 303.819 155.557L305.557 154.554L304.39 152.533L303.347 153.135C303.057 153.306 302.759 153.461 302.453 153.6C302.26 153.691 302.047 153.733 301.834 153.721C301.655 153.705 301.488 153.625 301.365 153.494C301.192 153.314 301.044 153.111 300.927 152.891L295.983 144.328L298.735 142.739L297.577 140.732Z" fill="white"/>
<path d="M303.974 133.795L305.241 127.291L302.331 128.971L302.265 134.782L303.974 133.795Z" fill="white"/>
<path d="M317.061 142.064L314.817 143.36C315.149 144.243 315.134 145.22 314.773 146.092C314.349 146.965 313.656 147.678 312.796 148.128C312.135 148.53 311.396 148.787 310.627 148.882C309.974 148.955 309.312 148.881 308.69 148.665C308.092 148.452 307.545 148.115 307.085 147.676C306.602 147.209 306.193 146.669 305.875 146.077L316.213 140.108C315.734 139.201 315.146 138.357 314.462 137.594C313.756 136.788 312.91 136.117 311.965 135.613C311.017 135.109 309.965 134.831 308.892 134.801C307.655 134.797 306.442 135.146 305.394 135.805C304.491 136.311 303.709 137.007 303.1 137.844C302.518 138.645 302.111 139.559 301.905 140.527C301.698 141.533 301.685 142.57 301.868 143.581C302.073 144.692 302.473 145.759 303.049 146.731C303.647 147.705 304.374 148.593 305.211 149.371C305.948 150.072 306.822 150.611 307.778 150.954C308.711 151.277 309.705 151.384 310.685 151.269C311.812 151.121 312.896 150.739 313.866 150.147C315.292 149.395 316.426 148.188 317.087 146.717C317.665 145.218 317.656 143.556 317.061 142.064ZM304.722 144.079C304.455 143.54 304.278 142.961 304.197 142.364C304.122 141.797 304.15 141.22 304.28 140.662C304.417 140.103 304.665 139.578 305.009 139.118C305.391 138.617 305.871 138.2 306.422 137.894C306.955 137.576 307.548 137.373 308.164 137.297C308.735 137.229 309.315 137.269 309.872 137.415C310.431 137.568 310.955 137.827 311.416 138.177C311.899 138.547 312.318 138.993 312.657 139.498L304.722 144.079Z" fill="white"/>
<path d="M331.078 137.213C331.081 136.37 330.845 135.543 330.397 134.829C330.084 134.24 329.62 133.745 329.052 133.395C328.544 133.101 327.978 132.92 327.393 132.865C326.776 132.815 326.154 132.856 325.548 132.986C324.896 133.123 324.251 133.293 323.615 133.495C323.012 133.677 322.407 133.867 321.805 134.062C321.256 134.241 320.693 134.375 320.123 134.464C319.65 134.541 319.167 134.53 318.699 134.431C318.496 134.386 318.305 134.299 318.138 134.175C317.971 134.052 317.832 133.894 317.73 133.713C317.536 133.41 317.454 133.049 317.497 132.692C317.549 132.353 317.681 132.032 317.881 131.754C318.104 131.439 318.371 131.157 318.676 130.919C318.987 130.671 319.316 130.447 319.66 130.248C320.033 130.032 320.429 129.857 320.84 129.727C321.235 129.598 321.649 129.534 322.064 129.537C322.466 129.539 322.862 129.634 323.22 129.815C323.621 130.028 323.961 130.339 324.208 130.72L326.477 129.41C326.032 128.695 325.437 128.084 324.735 127.619C324.136 127.244 323.452 127.026 322.747 126.985C322.016 126.953 321.286 127.06 320.595 127.302C319.802 127.574 319.038 127.925 318.315 128.35C317.7 128.707 317.13 129.137 316.617 129.63C316.112 130.11 315.689 130.669 315.364 131.286C315.052 131.875 314.879 132.527 314.858 133.194C314.843 133.921 315.036 134.639 315.413 135.261C315.802 136.043 316.47 136.651 317.284 136.965C318.04 137.207 318.841 137.275 319.627 137.164C320.492 137.033 321.342 136.818 322.166 136.522C323.036 136.217 323.859 135.973 324.637 135.773C325.318 135.584 326.024 135.506 326.73 135.541C327.031 135.561 327.322 135.66 327.574 135.827C327.826 135.994 328.03 136.223 328.167 136.493C328.402 136.862 328.505 137.301 328.457 137.737C328.403 138.135 328.247 138.513 328.006 138.834C327.746 139.18 327.438 139.489 327.093 139.75C326.752 140.017 326.393 140.26 326.02 140.478C325.568 140.742 325.089 140.958 324.593 141.124C324.132 141.282 323.648 141.363 323.161 141.363C322.7 141.356 322.247 141.239 321.84 141.021C321.394 140.764 321.023 140.395 320.763 139.95L318.489 141.263C318.94 142.013 319.553 142.652 320.283 143.133C320.921 143.533 321.646 143.772 322.396 143.829C323.172 143.88 323.952 143.787 324.695 143.555C325.507 143.301 326.289 142.957 327.025 142.529C327.728 142.122 328.391 141.649 329.005 141.117C329.613 140.609 330.123 139.994 330.511 139.303C330.859 138.66 331.053 137.945 331.078 137.213Z" fill="white"/>
<path d="M89.3921 243.75L75.2627 219.277L67.2505 223.903L81.3799 248.376L89.3921 243.75Z" fill="#64B5F6"/>
<path d="M69.2625 209.862L62.1023 213.996L60.8786 224.057L66.9093 220.575L67.5564 215.163L72.5619 217.312L77.6402 214.38L76.9074 213.111L69.2625 209.862Z" fill="#64B5F6"/>
<path d="M73.854 207.83L76.9038 213.113L78.589 213.832L77.6366 214.382L93.2951 241.503L101.307 236.878L81.8662 203.205L73.854 207.83Z" fill="#64B5F6"/>
<path d="M76.9059 213.112L77.6387 214.381L78.5911 213.831L76.9059 213.112Z" fill="#64B5F6"/>
<path d="M124.698 213.494L117.202 217.822C117.486 220.059 116.112 222.046 114.188 223.157C110.79 225.119 107.583 224.02 105.507 220.755L123.47 210.384C119.047 201.872 110.854 197.796 102.086 202.858C94.8777 207.02 91.9952 215.855 96.3225 223.35C101.056 231.549 109.253 233.235 117.237 228.625C122.678 225.471 126.503 219.993 124.698 213.494ZM102.919 216.272C101.675 213.012 102.389 209.905 105.213 208.275C107.898 206.725 111.134 207.864 112.889 210.516L102.919 216.272Z" fill="#64B5F6"/>
<path d="M128.058 195.2C122.181 198.594 121.926 204.839 125.061 210.27C128.197 215.701 133.828 218.689 139.743 215.273C142.381 213.751 144.3 211.404 144.114 208.695L144.191 208.651L145.689 211.247L148.848 209.423L133.513 182.862L130.354 184.686L136.07 194.585L135.993 194.629C133.29 193.208 130.021 194.067 128.058 195.2ZM140.245 201.574C142.327 205.18 142.789 209.76 138.558 212.203C134.475 214.56 130.598 212.144 128.518 208.542C126.348 204.783 125.663 200.281 129.97 197.794C134.278 195.306 138.063 197.795 140.259 201.598L140.245 201.574Z" fill="#64B5F6"/>
<path d="M164.728 192.126L161.608 193.928C162.48 196.732 161.38 199.06 158.795 200.552C154.602 202.973 150.998 201.107 149.173 197.691L163.531 189.401C161.033 184.643 155.257 179.491 148.48 183.404C143.215 186.444 141.883 192.858 145.215 198.629C148.799 204.395 154.144 206.954 160.28 203.411C164.6 200.923 166.314 196.862 164.728 192.126ZM147.551 194.905C146.059 191.845 146.608 188.22 149.892 186.325C153.017 184.52 156.659 185.61 158.555 188.552L147.551 194.905Z" fill="#64B5F6"/>
<path d="M175.937 148.893L151.144 163.207L170.582 196.875L179.346 191.815L171.858 178.846L185.719 170.843L181.801 164.057L167.94 172.06L163.964 165.173L179.993 155.918L175.937 148.893Z" fill="#64B5F6"/>
<path d="M199.797 147.007C199.102 147.231 198.433 147.529 197.803 147.897C194.352 149.889 192.577 153.117 193.19 156.907L193.099 156.96L190.61 152.65L182.823 157.146L196.952 181.619L204.97 176.99L197.99 164.902C196.215 161.827 196.718 157.891 200.672 155.608C201.72 155.022 202.846 154.587 204.016 154.316L199.797 147.007Z" fill="#64B5F6"/>
<path d="M229.96 162.594L238.03 157.934C235.967 156.571 234.648 154.287 233.451 152.213L227.268 141.505C223.267 134.575 216.919 136.534 211.123 139.881C208.337 141.489 205.79 143.599 204.321 146.062C202.853 148.525 202.59 151.531 204.28 154.834L211.795 150.495C210.978 148.208 211.813 146.404 214.034 145.122C215.685 144.169 218.303 143.596 219.365 145.435C220.236 146.944 219.755 147.847 218.55 148.92C213.643 153.266 204.617 157.66 209.212 165.62C212.132 170.677 217.166 170.907 221.827 168.215C224.757 166.524 227.333 163.912 228.153 160.546C228.67 161.3 229.277 161.987 229.96 162.594ZM217.042 160.678C215.936 158.762 217 157.113 218.542 155.661C220.084 154.209 222.015 152.832 222.736 151.484C225.837 156.424 225.809 159.326 221.999 161.526C220.194 162.568 218.187 162.661 217.042 160.678Z" fill="#64B5F6"/>
<path d="M249.526 135.518L256.359 147.353L264.371 142.727L255.305 127.023C253.264 123.488 249.172 117.926 241.016 122.635C238.097 124.321 235.693 127.784 235.703 131.118L235.598 131.179L233.662 127.826L225.884 132.317L240.014 156.789L248.016 152.169L240.307 138.817C238.759 136.135 238.612 132.829 241.598 131.105C246.011 128.557 247.591 132.166 249.526 135.518Z" fill="#64B5F6"/>
<path d="M285.704 117.588L277.931 122.076C279.06 124.872 278.551 127.305 275.779 128.905C272.391 130.862 269.147 128.405 267.322 125.244C265.362 121.849 263.866 117.623 268.341 115.039C270.361 113.873 273.034 114.246 274.297 116.313L282.094 111.811C277.801 105.669 270.524 105.599 264.445 109.108C256.572 113.654 254.834 122.084 259.324 129.862C263.652 137.357 272.043 139.236 279.39 134.994C285.895 131.239 288.807 124.532 285.704 117.588Z" fill="#64B5F6"/>
<path d="M313.032 104.759L305.527 109.092C305.816 111.327 304.447 113.311 302.523 114.422C299.125 116.384 295.913 115.288 293.837 112.023L311.795 101.655C307.381 93.137 299.189 89.0612 290.416 94.1264C283.212 98.2853 280.325 107.123 284.652 114.618C289.389 122.822 297.588 124.5 305.567 119.893C311.008 116.739 314.824 111.267 313.032 104.759ZM291.249 107.54C290.005 104.28 290.71 101.179 293.543 99.543C296.233 97.99 299.469 99.1294 301.195 101.798L291.249 107.54Z" fill="#64B5F6"/>
<path d="M315.441 86.5942L334.437 119.496C336.548 123.13 340.012 125.781 344.07 126.87C348.128 127.958 352.451 127.396 356.094 125.306L388.966 106.328C392.601 104.219 395.253 100.756 396.341 96.6955C397.429 92.6353 396.865 88.3085 394.773 84.6612L375.777 51.7592C373.663 48.1248 370.198 45.4741 366.138 44.3864C362.078 43.2988 357.754 43.8626 354.11 45.9546L321.228 64.9389C317.6 67.0507 314.954 70.5132 313.87 74.5705C312.786 78.6278 313.351 82.9503 315.441 86.5942ZM370.967 69.6253C374.889 69.277 378.286 71.4917 378.569 74.5788C378.851 77.6659 375.892 80.4538 371.959 80.8153C368.026 81.1767 364.64 78.9489 364.357 75.8618C364.074 72.7747 367.042 69.9888 370.967 69.6253ZM345.1 68.8256C353.502 70.7883 357.561 74.5811 362.028 80.1951C366.494 85.8091 367.445 88.2741 375.332 93.4458C377.493 94.8674 375.966 94.9959 373.868 94.5019C365.466 92.5393 361.404 88.7417 356.94 83.1325C352.476 77.5233 351.523 75.0535 343.636 69.8818C341.475 68.4602 343.005 68.3365 345.1 68.8256ZM323.339 80.1123C330.212 80.831 335.813 81.3905 342.33 82.1554C350.581 83.094 357.922 87.3099 353.709 96.6583C349.795 105.355 345.534 114.941 344.313 117.689C344.145 118.061 343.749 118.117 343.461 117.696C341.879 115.353 338.253 109.968 339.718 106.658C341.839 101.864 344.33 96.4088 346.289 92.0086C347.98 88.2164 346.5 84.9903 342.497 84.5681C338.029 84.1019 330.938 83.3368 328.122 83.0145C326.345 82.8595 324.617 82.3505 323.04 81.5174C321.705 80.7871 321.743 79.9351 323.331 80.0979L323.339 80.1123Z" fill="#64B5F6"/>
<path d="M364.359 75.861C364.642 78.9481 368.053 81.1545 371.96 80.8144C375.868 80.4743 378.826 77.674 378.571 74.5779C378.315 71.4818 374.876 69.2844 370.969 69.6245C367.062 69.9645 364.093 72.7703 364.359 75.861Z" fill="white"/>
<path d="M323.054 81.5343C324.631 82.3674 326.36 82.8765 328.137 83.0315C330.976 83.3399 338.043 84.1189 342.512 84.585C346.514 85.0072 347.994 88.2333 346.303 92.0255C344.339 96.4162 341.847 101.871 339.732 106.675C338.267 109.985 341.893 115.37 343.476 117.713C343.763 118.134 344.159 118.078 344.327 117.706C345.548 114.958 349.814 105.369 353.723 96.6752C357.931 87.3173 350.589 83.1014 342.344 82.1723C335.852 81.4506 330.22 80.8706 323.345 80.1148C321.746 79.9329 321.709 80.7849 323.054 81.5343Z" fill="white"/>
<path d="M343.638 69.8805C351.525 75.0522 352.49 77.5412 356.943 83.1312C361.395 88.7213 365.469 92.538 373.871 94.5007C375.966 94.9898 377.496 94.8661 375.335 93.4445C367.448 88.2728 366.483 85.7839 362.031 80.1938C357.578 74.6037 353.504 70.787 345.103 68.8244C343.008 68.3352 341.477 68.4589 343.638 69.8805Z" fill="white"/>
<path d="M452.724 205.755L450.512 201.924C450.376 201.711 450.163 201.56 449.918 201.503C449.672 201.445 449.414 201.486 449.198 201.616L445.594 203.697C445.483 203.757 445.385 203.84 445.306 203.939C445.227 204.039 445.168 204.153 445.133 204.275C445.099 204.397 445.089 204.525 445.104 204.651C445.12 204.777 445.16 204.899 445.223 205.009L447.435 208.841C447.501 208.948 447.587 209.041 447.689 209.114C447.791 209.188 447.906 209.241 448.028 209.27C448.151 209.299 448.278 209.304 448.402 209.284C448.526 209.264 448.644 209.219 448.751 209.153L452.346 207.078C452.459 207.018 452.559 206.935 452.64 206.836C452.721 206.736 452.781 206.621 452.816 206.497C452.851 206.374 452.861 206.244 452.846 206.117C452.83 205.989 452.789 205.866 452.724 205.755Z" fill="white"/>
<path d="M444.255 210.644L442.043 206.813L438.116 200.012C438.019 199.837 437.877 199.69 437.705 199.587C437.534 199.483 437.338 199.426 437.137 199.422L415.976 202.252L429.792 183.969L424.907 180.449L424.389 181.143C420.708 186.249 417.089 191.288 413.532 196.262C410.659 200.239 408.557 203.119 407.91 203.978L410.23 207.996C411.343 207.89 415.035 207.476 420.256 206.914C425.477 206.351 430.464 205.803 435.264 205.273L437.163 208.564L418.071 219.587C417.961 219.649 417.864 219.732 417.786 219.832C417.708 219.931 417.651 220.045 417.617 220.167C417.584 220.29 417.575 220.417 417.591 220.543C417.607 220.668 417.648 220.789 417.712 220.899L419.924 224.73C419.989 224.837 420.075 224.93 420.176 225.004C420.277 225.078 420.392 225.131 420.514 225.161C420.636 225.19 420.762 225.195 420.886 225.175C421.01 225.155 421.129 225.111 421.235 225.046L443.874 211.975C443.988 211.914 444.089 211.831 444.17 211.731C444.251 211.63 444.312 211.515 444.347 211.39C444.383 211.266 444.393 211.136 444.377 211.008C444.361 210.88 444.32 210.756 444.255 210.644Z" fill="white"/>
<path d="M422.615 178.406C422.941 176.751 422.868 175.042 422.403 173.42C421.867 171.536 421.088 169.73 420.086 168.047C419.389 166.84 418.85 165.906 418.386 165.235L417.511 163.907L417.104 163.312L412.249 165.381L412.818 166.247C413.329 167.043 413.762 167.681 414.07 168.161C414.379 168.64 414.711 169.171 415.098 169.841C415.648 170.772 416.134 171.739 416.553 172.737C416.87 173.502 417.089 174.305 417.204 175.125C417.376 176.061 417.251 177.027 416.846 177.887C416.486 178.572 415.984 179.173 415.374 179.649C414.258 178.048 413.058 176.507 411.778 175.034C410.714 173.766 409.53 172.604 408.243 171.564C406.753 170.352 404.989 169.525 403.105 169.153C401.335 168.83 399.507 169.161 397.963 170.085C397.002 170.636 396.169 171.385 395.518 172.282C395.421 172.115 395.332 171.961 395.263 171.753C394.945 171.058 394.733 170.319 394.636 169.56C394.53 168.872 394.605 168.169 394.854 167.519C395.089 166.992 395.494 166.561 396.004 166.293L397.545 165.403C398.426 164.895 399.55 164.245 400.971 163.457C402.392 162.668 404.076 161.716 406.024 160.591C408.297 159.278 409.823 157.522 410.449 155.367C410.746 154.281 410.814 153.145 410.648 152.032C410.482 150.918 410.086 149.851 409.485 148.899C408.681 147.617 407.675 146.472 406.507 145.51C405.08 144.299 403.553 143.211 401.942 142.258L404.134 140.992L401.151 135.825L376.774 149.899L379.68 154.932C379.805 154.86 389.085 149.502 390.426 148.728C391.766 147.954 393.297 147.07 394.949 146.117C396.064 145.473 396.83 145.031 397.27 144.777C398.676 145.557 400.016 146.448 401.279 147.443C402.319 148.187 403.21 149.119 403.906 150.192C404.736 151.628 404.866 152.683 404.585 153.401C404.304 154.119 403.387 155.172 401.724 156.183C401.016 156.592 399.89 157.274 398.333 158.179C396.775 159.085 395.595 159.76 394.801 160.219L392.589 161.495L392.546 161.52C391.618 162.109 390.845 162.912 390.293 163.862C389.666 165.025 389.32 166.318 389.282 167.639C389.327 169.148 389.612 170.641 390.126 172.062C390.67 173.699 391.393 175.271 392.283 176.749L395.297 181.969L395.368 182.158L401.675 193.082C401.777 193.258 401.934 193.396 402.121 193.475C402.309 193.554 402.517 193.571 402.714 193.523C402.815 193.503 402.912 193.465 402.999 193.409L403.095 193.354L403.267 193.255C403.449 193.15 403.952 192.86 406.374 191.506C408.796 190.152 411.869 188.333 415.678 186.134C417.957 184.818 419.608 183.578 420.639 182.325C421.592 181.189 422.269 179.848 422.615 178.406ZM407.711 184.195C406.366 184.971 405.285 185.596 404.495 186.052C404.213 186.215 403.983 186.347 403.777 186.466C403.644 186.236 403.501 185.987 403.384 185.786C403.125 185.336 402.912 184.967 402.748 184.685C402.207 183.75 401.716 182.786 401.279 181.797C400.905 180.951 400.611 180.071 400.4 179.169C400.165 178.303 400.144 177.394 400.337 176.518C400.44 176.154 400.617 175.816 400.858 175.525C401.099 175.234 401.398 174.997 401.736 174.829C402.045 174.639 402.394 174.524 402.755 174.491C403.116 174.459 403.479 174.511 403.817 174.642C404.672 174.948 405.458 175.422 406.128 176.035C407.337 177.116 408.428 178.323 409.381 179.636C410.167 180.689 410.805 181.54 411.232 182.169C410.591 182.539 410.021 182.868 409.499 183.169L407.711 184.195Z" fill="white"/>
<path d="M468.832 259.96C469.285 258.288 469.378 256.539 469.105 254.828C468.809 253.028 468.179 251.3 467.248 249.732C466.338 248.145 465.134 246.747 463.701 245.611C462.303 244.509 460.7 243.698 458.985 243.225C457.165 242.69 455.251 242.558 453.375 242.837C451.484 243.144 449.666 243.799 448.014 244.77C446.229 245.795 444.662 247.159 443.402 248.786C442.177 250.344 441.31 252.152 440.864 254.083C440.517 255.73 440.49 257.428 440.784 259.085C441.093 260.795 441.698 262.438 442.572 263.94C443.436 265.487 444.574 266.864 445.932 268.002C447.358 269.14 449 269.977 450.758 270.461C452.517 270.945 454.355 271.067 456.161 270.819C458.168 270.556 460.101 269.896 461.849 268.877C463.559 267.913 465.074 266.636 466.312 265.112C467.509 263.593 468.368 261.837 468.832 259.96ZM454.818 265.165C453.532 265.368 452.218 265.292 450.963 264.945C450.098 264.696 449.291 264.279 448.589 263.717C447.852 263.099 447.232 262.354 446.757 261.517C446.316 260.765 446.003 259.943 445.833 259.088C445.671 258.282 445.659 257.452 445.8 256.642C446.044 255.25 446.637 253.943 447.525 252.843C448.498 251.674 449.677 250.692 451.003 249.947C452.217 249.24 453.552 248.763 454.94 248.543C456.199 248.319 457.492 248.377 458.727 248.713C459.628 248.945 460.474 249.352 461.218 249.911C461.973 250.53 462.6 251.289 463.064 252.147C463.524 252.929 463.84 253.787 463.997 254.68C464.157 255.512 464.143 256.368 463.956 257.194C463.664 258.576 463.03 259.861 462.113 260.934C461.153 262.072 460.003 263.034 458.714 263.778C457.512 264.477 456.191 264.947 454.818 265.165Z" fill="white"/>
<path d="M427.843 231.824C427.696 234.015 427.975 236.213 428.664 238.298C429.326 240.458 430.227 242.538 431.351 244.499L431.536 244.82C430.454 245.338 429.263 245.588 428.063 245.548C426.797 245.487 425.34 244.866 423.707 243.529C422.587 242.575 421.585 241.489 420.724 240.296C420.419 239.891 420.112 239.468 419.802 239.009C419.27 241.414 419.044 243.877 419.127 246.339C420.195 247.437 421.377 248.418 422.654 249.265C424.524 250.456 426.684 251.117 428.9 251.175C431.133 251.208 433.588 250.385 436.282 248.829C437.718 248 439.293 247.091 441.004 246.065C442.715 245.038 444.412 244.097 446.073 243.138C448.511 241.731 451.092 240.259 453.818 238.724C455.034 238.022 456 237.464 456.738 237.038L458.264 236.157C458.469 236.039 458.624 235.85 458.699 235.625C458.774 235.401 458.764 235.156 458.671 234.939L457.137 232.281C455.967 230.202 454.637 228.218 453.156 226.348C451.93 224.818 450.482 223.48 448.861 222.378C446.769 220.929 444.35 220.021 441.822 219.737C439.294 219.491 436.754 220.062 434.575 221.367C432.636 222.368 430.992 223.858 429.806 225.69C428.619 227.522 427.931 229.632 427.81 231.812L427.843 231.824ZM442.105 225.467C443.772 225.555 445.37 226.155 446.684 227.185C447.72 227.956 448.662 228.846 449.491 229.837C450.342 230.887 451.108 232.004 451.782 233.175C450.262 234.091 448.786 234.95 447.368 235.788C445.703 236.749 444.319 237.548 443.223 238.181C441.132 239.388 439.332 240.427 437.789 241.28C436.999 241.736 436.391 242.087 435.96 242.336L435.891 242.216C435.153 240.953 434.557 239.612 434.112 238.218C433.717 237.015 433.46 235.771 433.344 234.51C433.2 232.976 433.475 231.431 434.139 230.041C434.855 228.605 435.999 227.426 437.413 226.669C438.828 225.824 440.458 225.406 442.105 225.467Z" fill="white"/>
</g>
</g>
<defs>
<clipPath id="clip0_75_1693">
<rect width="557" height="240" fill="white"/>
</clipPath>
<clipPath id="clip1_75_1693">
<rect width="279" height="442" fill="white" transform="translate(388.783 1) rotate(60)"/>
</clipPath>
</defs>
</svg>